<svg width="720" height="720" viewBox="0 0 720 720" fill="none" xmlns="http://www.w3.org/2000/svg">
<path d="M66.1931 373.934C66.1931 377.472 66.1931 381.381 66.3838 385.473C66.3838 389.2 66.5678 392.548 66.5678 395.916C66.5678 404.478 66.1931 411.925 65.8184 418.438C64.5036 427.576 61.1312 433.149 55.8786 435.407C50.626 437.665 45.9453 438.736 42.0075 438.736C38.562 438.726 35.1409 438.161 31.8771 437.065C28.2255 435.826 24.8642 433.866 21.9957 431.303C19.1272 428.74 16.8108 425.627 15.1858 422.152C11.8331 414.144 8.81567 399.251 6.18609 377.844C3.37244 356.43 1.68951 335.957 0.926927 316.782C0.374715 297.607 0 282.707 0 272.31C0 255.185 0.56536 238.242 1.49886 221.299C3.18837 193.908 6.57395 170.262 11.8331 150.343C17.0923 130.424 24.5866 117.58 34.3357 111.837C69.204 93.9456 99.5143 85 125.267 85C126.95 85 128.639 85.1893 130.329 85.1893C157.117 86.488 176.458 94.496 188.672 109.2C200.676 123.911 206.863 141.226 206.863 160.955C206.819 165.755 206.506 170.549 205.922 175.314C202.175 200.441 195.049 222.957 184.735 242.889C175.009 261.868 162.844 279.515 148.545 295.388C136.025 309.286 122.404 322.167 107.813 333.907C94.3099 344.519 82.6806 353.082 72.7473 359.785C70.4925 361.462 68.4283 362.95 66.3706 364.249C66.1931 367.232 66.1931 370.397 66.1931 373.934ZM97.2945 273.616C107.423 258.722 116.799 241.594 125.424 222.233C133.921 203.189 140.039 183.184 143.641 162.665C144.069 159.58 144.319 156.472 144.39 153.358C144.379 148.127 143.686 142.919 142.326 137.865C140.078 129.863 136.515 124.087 131.808 120.178C127.101 116.268 121.868 114.219 116.431 114.219C114.098 114.201 111.77 114.453 109.496 114.97C99.5559 117.012 93.3633 123.343 91.0887 133.772C84.5928 161.126 79.9108 188.873 77.073 216.835C74.0687 245.689 71.6363 274.36 69.9468 302.841C69.7562 304.147 69.7562 305.452 69.5721 306.757C77.8224 299.65 87.0062 288.666 97.2945 273.616Z" fill="#C6D300"/>
<path d="M312.04 369.282C309.226 356.62 307.162 344.703 305.466 333.536C304.526 327.577 303.586 322.552 302.837 318.453C292.522 319.941 280.899 322.18 267.962 324.784C265.523 325.345 263.084 325.9 260.645 326.272V360.53C260.086 368.91 256.148 374.888 248.812 378.027C241.475 381.166 234.75 382.68 228.558 382.68C225.094 382.667 221.641 382.293 218.256 381.564C208.316 379.332 201.565 373.561 198.002 364.25C195.372 352.894 194.248 340.049 194.248 325.345C194.248 316.965 194.629 308.213 195.379 298.724C197.901 271.999 203.694 245.68 212.629 220.347C221.629 194.28 234.191 172.129 250.508 154.253C259.882 144.946 269.447 139.732 279.013 138.244C288.578 136.756 295.513 136.012 299.635 136.012C309.571 136.009 319.402 138.038 328.514 141.97C341.268 147.551 349.334 157.419 352.522 171.568C357.019 211.967 360.768 256.895 363.771 306.353C365.835 337.073 367.715 364.439 369.773 388.267V388.639C369.773 394.598 366.768 399.251 360.569 402.417C354.578 405.626 347.872 407.291 341.064 407.259H339.94C332.439 406.887 326.792 404.466 323.255 399.623C318.601 391.994 314.854 381.754 312.04 369.282ZM298.162 266.515C297.978 257.763 297.604 249.201 297.038 240.638C296.473 232.075 295.724 224.811 294.79 218.852C293.857 212.894 292.535 209.546 290.846 208.802C290.491 208.653 290.106 208.59 289.722 208.619C286.717 208.619 283.529 211.595 280.715 217.364C277.343 223.891 274.345 231.886 271.512 241.565C268.678 251.243 266.45 260.374 264.76 269.309C263.071 278.054 261.947 284.202 261.756 287.922C267.574 287.55 273.76 287.368 279.946 286.996C286.323 286.806 292.7 286.617 299.26 286.245C298.912 280.665 298.537 273.962 298.162 266.515Z" fill="#C6D300"/>
<path d="M452.288 358.459C452.288 362.375 449.658 366.291 444.399 369.815C438.213 374.286 432.776 376.707 427.898 377.079C423.02 377.451 420.213 377.634 419.273 377.634C411.582 377.634 404.646 374.658 398.644 369.071C389.828 359.203 384.181 345.987 381.394 329.044C378.67 312.927 377.289 296.614 377.266 280.272C377.266 274.496 377.266 268.916 377.64 262.957C378.771 240.989 381.585 221.07 385.891 203.383C390.197 185.696 395.456 173.779 401.668 167.487C405.261 164.464 409.72 162.638 414.415 162.266C418.918 162.077 421.732 162.077 422.665 162.077C430.06 162.045 437.431 162.922 444.609 164.688C453.234 166.92 459.795 169.909 464.482 173.622C468.985 177.342 471.424 181.252 471.424 185.533C471.347 186.983 471.102 188.42 470.695 189.815C466.75 200.799 462.628 216.991 458.132 238.404C453.635 259.818 450.815 277.681 449.5 292.019C448.376 306.541 447.817 316.592 447.817 322.55C447.817 335.956 449.132 347.123 451.939 356.247C452.146 356.967 452.263 357.71 452.288 358.459V358.459Z" fill="#C6D300"/>
<path d="M544.98 376.355C544.98 379.331 544.98 382.308 545.171 385.662C545.171 388.638 545.355 391.432 545.355 394.225C545.355 400.928 544.98 407.069 544.605 412.284C543.29 419.541 539.918 424.195 534.665 426.061C529.406 427.732 524.726 428.672 520.788 428.672C517.369 428.697 513.963 428.258 510.664 427.366C503.163 425.134 497.516 421.225 493.973 415.266C490.598 408.74 487.598 396.825 484.973 379.521C482.288 363.187 480.532 346.717 479.714 330.187C479.155 314.739 478.78 302.821 478.78 294.259C478.78 280.481 479.339 266.704 480.279 253.142C481.969 231.174 485.341 212.025 490.594 195.8C495.853 179.791 503.341 169.368 513.096 164.714C547.938 150.356 578.349 143.118 604.04 143.118C605.73 143.118 607.419 143.301 609.102 143.301C635.924 144.234 655.238 150.748 667.426 162.665C679.424 174.576 685.617 188.543 685.617 204.363C685.57 208.295 685.256 212.22 684.676 216.11C680.929 236.401 673.803 254.617 663.489 270.652C653.384 286.333 641.21 300.6 627.292 313.074C613.579 325.175 599.892 335.617 586.58 343.958C573.077 352.521 561.448 359.621 551.508 364.993C549.26 366.298 547.195 367.414 545.138 368.537C544.98 370.951 544.98 373.562 544.98 376.355ZM576.075 295.368C586.772 282.458 596.192 268.556 604.205 253.853C612.578 238.802 618.705 222.624 622.395 205.825C622.821 203.299 623.071 200.748 623.144 198.189C623.115 193.95 622.419 189.742 621.08 185.717C618.832 179.386 615.269 174.543 610.562 171.358C606.033 168.288 600.669 166.663 595.185 166.698C592.86 166.708 590.539 166.895 588.243 167.26C578.303 168.937 572.117 173.962 569.836 182.525C563.35 204.456 558.646 226.868 555.768 249.546C552.77 272.819 550.331 295.884 548.642 318.987C548.458 319.914 548.458 321.037 548.267 322.153C556.576 316.403 565.76 307.468 576.075 295.368Z" fill="#C6D300"/>
<path d="M163.758 447.663C159.652 458.577 156.423 469.796 154.101 481.216C152.293 491.254 151.386 498.89 151.386 504.287C151.301 507.053 151.555 509.819 152.142 512.524C158.397 511.77 164.695 511.419 170.996 511.473H173.264C180.675 511.538 188.058 512.391 195.286 514.018C202.682 516.12 206.758 519.115 207.81 523.155C208.868 527.071 209.322 529.897 209.322 531.992C209.364 535.293 208.532 538.548 206.909 541.429C204.643 545.345 201.626 547.292 197.857 547.271C197.048 547.291 196.238 547.241 195.438 547.121C192.434 546.345 189.336 545.993 186.234 546.076C182.752 546.134 179.276 546.383 175.821 546.82C167.867 547.725 160.146 550.06 153.036 553.712C151.833 554.763 151.228 557.158 151.228 561.205V569.265C151.228 574.808 151.379 580.949 151.681 587.689C152.135 595.926 152.589 603.118 153.036 609.403C153.187 612.699 153.338 615.277 153.489 616.895C153.336 624.087 150.47 628.873 144.891 631.253C139.158 633.799 133.879 635 129.198 635C126.056 634.939 122.927 634.587 119.85 633.949C111.547 632.154 105.21 627.357 100.838 619.721C93.0885 603.307 88.3363 585.658 86.8031 567.594C85.2954 549.62 84.5416 535.242 84.5416 524.461C84.5152 510.096 85.3208 495.743 86.9543 481.471C89.8205 456.611 94.5012 436.085 101.292 420.213C105.469 411.151 112.667 403.798 121.671 399.393C130.724 394.897 138.869 392.351 146.113 391.901C153.345 391.301 158.485 391.007 161.654 391.007C169.646 391.021 177.621 391.722 185.491 393.102C196.351 395.06 205.706 397.742 213.549 401.338C221.247 405.084 225.921 409.575 227.887 414.822C229.694 419.913 230.753 424.403 230.753 428.299C230.699 431.124 230.344 433.935 229.694 436.686C228.189 443.428 225.467 449.269 221.398 454.059C217.329 458.85 212.799 461.402 207.816 461.852C202.386 461.852 198.317 459.75 195.747 455.41C192.845 450.602 190.518 445.475 188.811 440.132C187.45 436.216 186.089 432.346 184.433 428.75C182.915 425.387 180.704 422.377 177.944 419.913C172.961 425.95 168.129 435.237 163.758 447.663Z" fill="white"/>
<path d="M366.372 472.83C362.152 459.947 355.512 450.066 346.762 443.024C334.995 434.487 320.971 429.545 304.689 428.196C301.52 427.895 298.201 427.896 295.032 427.896C281.815 427.981 268.706 430.26 256.246 434.637C242.966 439.128 233.164 446.47 226.374 456.658C224.71 459.647 223.961 462.199 223.961 464.294C223.961 465.938 224.71 467.74 226.222 469.835C228.057 472.233 230.369 474.232 233.013 475.709C234.401 476.472 235.669 477.43 236.78 478.554C237.214 479.003 237.481 479.586 237.536 480.205C237.525 480.689 237.367 481.157 237.083 481.55C231.652 488.729 226.978 498.179 223.054 510.162C219.418 521.336 217.586 533.01 217.624 544.752C217.624 545.653 217.624 549.543 217.775 556.435C217.926 563.327 221.719 571.713 229.089 581.751C236.32 591.782 248.547 598.224 265.752 601.37C273.377 602.655 281.098 603.309 288.833 603.328C303.091 603.341 317.168 600.155 330.012 594.008C342.982 587.866 353.244 577.829 360.633 563.901C368.071 550.09 372.214 534.768 372.743 519.116C372.894 516.714 372.894 514.469 372.894 512.224C372.927 498.825 370.724 485.514 366.372 472.83V472.83ZM317.797 533.794C316.158 544.359 312.901 554.613 308.14 564.201C303.611 573.338 298.332 578.56 292.146 579.924C283.994 578.729 278.268 575.14 274.948 568.992C271.929 563.601 270.419 557.159 270.419 549.667C270.419 548.472 270.57 545.477 270.873 540.38C271.024 535.289 272.983 527.979 276.303 518.516C279.582 509.322 283.998 500.568 289.451 492.456C290.428 490.887 290.949 489.079 290.956 487.234C290.956 484.239 289.148 480.943 285.224 477.203C281.457 473.457 275.119 471.656 266.218 471.512C266.015 470.676 265.914 469.82 265.916 468.96C265.916 467.002 266.521 463.87 267.888 459.973C269.249 455.933 271.832 451.737 275.284 447.69C278.735 443.957 282.791 441.999 287.623 441.999L288.826 442.149C298.634 443.35 306.175 448.741 311.178 457.878C316.18 467.015 319.171 478.247 320.23 491.431C320.532 495.347 320.683 499.367 320.683 503.263C320.605 513.504 319.639 523.718 317.797 533.794V533.794Z" fill="white"/>
<path d="M717.875 477.628C717.845 481.631 717.592 485.629 717.119 489.604C714.858 507.434 709.125 525.258 699.922 542.932C690.89 560.315 679.576 576.432 666.276 590.863C653.129 605.09 640.329 615.572 628.108 622.19C615.887 628.932 605.027 632.227 595.823 632.227C592.933 632.233 590.05 631.931 587.225 631.327C578.619 629.082 571.684 622.64 566.398 611.858C561.139 601.22 557.044 588.043 554.335 572.314C551.564 556.916 549.807 541.354 549.076 525.728C548.32 510.6 547.873 496.822 547.873 484.69C547.873 480.65 548.024 476.603 548.024 472.707C548.471 456.978 548.925 443.651 549.681 432.895C550.588 423.458 555.597 415.966 564.801 410.575C573.853 405.184 582.906 402.038 592.109 401.137C601.313 400.237 608.255 399.793 613.08 399.793C622.587 399.789 632.077 400.59 641.447 402.188C656.231 404.734 669.655 409.224 681.876 415.816C693.946 422.257 702.999 430.494 708.882 440.681C714.882 452.08 717.971 464.767 717.875 477.628V477.628ZM648.954 524.658C654.384 506.684 657.099 492.306 657.099 481.368C657.207 473.705 656.098 466.073 653.812 458.753C648.553 442.574 638.58 432.843 623.789 429.697H623.04C618.208 429.697 614.29 434.188 611.568 443.325C608.702 453.062 606.743 465.195 605.651 479.573C604.6 494.101 603.995 508.329 603.995 522.556V526.472C604.146 542.051 604.751 555.528 605.651 566.767C606.559 577.862 607.624 584.591 608.971 586.536C630.245 563.301 643.675 542.782 648.954 524.658Z" fill="white"/>
<path d="M530.826 481.067C527.355 470.435 520.262 460.835 509.402 452.611C498.542 444.388 483.303 439.558 463.838 438.384C461.274 438.233 458.71 438.233 456.442 438.233C446.469 438.233 438.035 439.121 431.218 440.89L430.817 440.994C429.019 441.47 427.25 442.047 425.518 442.724C419.871 444.858 415.828 447.573 413.396 450.816C402.279 460.012 389.112 477.249 383.813 508.837C383.728 509.326 383.649 509.822 383.563 510.319V510.364C383.412 511.311 383.267 512.276 383.136 513.275C382.523 517.741 382.22 522.244 382.229 526.752C382.229 533.794 383.136 542.031 384.944 551.768C386.758 561.356 391.281 569.892 398.374 577.378C406.06 584.58 415.269 589.987 425.328 593.205L453.346 515.859C454.003 514.123 455.186 513.047 456.508 513.047H461.767C463.082 513.047 464.304 514.137 464.929 515.873L492.191 591.763C498.48 589.29 504.339 585.853 509.553 581.575C515.89 576.184 521.472 567.941 526.297 557.159C530.978 546.377 533.995 534.395 535.349 521.211C535.652 517.948 535.803 514.77 535.803 511.474C535.776 501.886 534.146 491.705 530.826 481.067Z" fill="white"/>
<path d="M485.598 498.193C484.138 495.51 482.166 494.022 478.044 492.397C470.897 489.532 463.281 487.997 455.574 487.868C449.388 487.783 443.169 488.553 437.016 489.323C435.044 489.565 433.21 491.027 431.316 491.934L431.593 492.671L485.598 498.193Z" fill="#EFEFEF"/>
<path d="M471.241 488.586C471.727 484.872 469.335 480.591 465.265 478.359C460.591 475.794 455.996 476.153 451.736 479.26C449.343 481.002 447.627 483.286 447.719 486.491L452.242 479.632C452.137 481.524 451.388 483.032 451.098 484.618C450.993 485.199 451.907 486.511 452.472 486.576C458.711 487.352 464.976 487.946 471.241 488.586Z" fill="#EFEFEF"/>
<path d="M478.525 499.556C475.744 499.268 473.345 498.981 470.932 498.812C470.37 498.833 469.836 499.067 469.44 499.464C467.915 500.978 466.469 502.571 464.996 504.124C468.927 505.56 475.297 503.569 478.525 499.556Z" fill="#EFEFEF"/>
<path d="M438.529 495.758C439.246 499.335 446.339 503.434 450.191 502.507C448.278 497.025 444.301 494.734 438.529 495.758Z" fill="#EFEFEF"/>
<path d="M457.336 502.74C457.327 501.36 457.244 499.981 457.086 498.609C457.019 498.318 456.882 498.048 456.688 497.821C456.493 497.594 456.247 497.416 455.969 497.304C453.766 496.958 451.538 496.795 449.25 496.56C449.934 501.657 451.86 503.112 457.336 502.74Z" fill="#EFEFEF"/>
<path d="M458.283 502.833C463.345 504.328 466.481 502.755 467.158 498.382L464.16 498.075C459.184 497.566 459.184 497.566 458.283 502.833Z" fill="#EFEFEF"/>
<path d="M431.251 494.863C432.526 497.996 438.482 501.579 441.973 501.566C440.428 500.26 438.351 499.131 437.22 497.395C435.682 495.085 433.789 494.706 431.251 494.863Z" fill="#EFEFEF"/>
<path d="M473.436 505.13C477.676 504.608 482.047 504.125 485.302 500.503C483.757 500.137 482.015 499.667 480.884 500.261C478.248 501.612 475.888 503.485 473.436 505.13Z" fill="#EFEFEF"/>
<path d="M485.598 498.193L431.613 492.671L431.337 491.934C433.23 491.027 435.058 489.565 437.037 489.323C443.19 488.553 449.409 487.783 455.595 487.868C463.295 487.999 470.904 489.534 478.045 492.397C482.167 494.022 484.139 495.517 485.598 498.193Z" fill="#C6D300"/>
<path d="M471.241 488.585C464.976 487.933 458.711 487.352 452.472 486.582C451.907 486.51 450.993 485.198 451.098 484.624C451.388 483.038 452.137 481.53 452.242 479.637L447.719 486.497C447.627 483.292 449.343 481.008 451.736 479.265C455.996 476.159 460.591 475.8 465.265 478.365C469.335 480.59 471.727 484.872 471.241 488.585Z" fill="#C6D300"/>
<path d="M478.525 499.557C475.278 503.571 468.927 505.561 464.996 504.093C466.469 502.54 467.915 500.947 469.44 499.433C469.836 499.035 470.37 498.802 470.932 498.78C473.325 498.983 475.744 499.27 478.525 499.557Z" fill="#C6D300"/>
<path d="M438.529 495.758C444.301 494.734 448.278 497.025 450.191 502.507C446.372 503.434 439.246 499.335 438.529 495.758Z" fill="#C6D300"/>
<path d="M457.336 502.741C451.86 503.113 449.934 501.658 449.25 496.567C451.538 496.802 453.766 496.966 455.969 497.311C456.247 497.424 456.493 497.602 456.688 497.829C456.882 498.056 457.019 498.326 457.086 498.617C457.243 499.986 457.327 501.363 457.336 502.741V502.741Z" fill="#C6D300"/>
<path d="M458.283 502.833C459.184 497.566 459.184 497.566 464.16 498.075L467.158 498.382C466.481 502.755 463.345 504.328 458.283 502.833Z" fill="#C6D300"/>
<path d="M431.251 494.863C433.821 494.7 435.715 495.079 437.22 497.395C438.351 499.132 440.428 500.261 441.973 501.566C438.482 501.585 432.493 498.002 431.251 494.863Z" fill="#C6D300"/>
<path d="M473.436 505.13C475.888 503.485 478.248 501.612 480.884 500.261C482.041 499.667 483.757 500.137 485.302 500.503C482.047 504.125 477.676 504.608 473.436 505.13Z" fill="#C6D300"/>
<path d="M472.799 555.265C472.384 554.854 471.885 554.528 471.438 554.156C471.108 553.925 470.806 553.658 470.537 553.36C470.378 553.058 470.153 552.796 469.879 552.591C469.605 552.387 469.289 552.246 468.953 552.178C468.828 552.178 468.71 552.041 468.591 551.969L466.474 550.71C466.172 550.521 465.876 550.318 465.58 550.109C465.187 549.779 464.765 549.484 464.318 549.228C463.418 548.817 462.451 548.576 461.551 548.138C461.22 547.972 460.859 547.873 460.489 547.849C460.12 547.824 459.749 547.875 459.399 547.997C459.049 548.119 458.728 548.31 458.455 548.559C458.182 548.807 457.963 549.108 457.81 549.444C457.712 549.683 457.553 549.892 457.347 550.051C457.142 550.209 456.898 550.31 456.64 550.344C456.277 550.376 455.912 550.376 455.549 550.344C455.101 551.095 454.707 551.885 454.188 552.589C453.668 553.294 453.031 553.895 452.446 554.547C452.301 554.711 452.15 554.867 451.999 555.03C451.813 555.279 451.591 555.499 451.341 555.683C450.552 556.14 449.737 556.538 448.922 556.949C447.969 557.426 447.009 557.902 446.043 558.352C445.681 558.529 445.385 558.659 445.674 559.135C445.747 559.253 445.635 559.527 445.536 559.684C444.925 560.689 444.583 561.832 444.544 563.006C444.56 564.143 444.227 565.258 443.591 566.204C443.475 566.39 443.401 566.6 443.374 566.817C443.314 567.209 443.42 567.639 443.847 567.659C444.13 567.659 444.452 567.385 444.715 567.17C444.826 567.078 444.84 566.843 444.859 566.661C444.925 566.21 444.964 565.76 444.997 565.453C445.799 565.127 446.536 564.898 447.2 564.546C449.314 563.38 451.773 562.99 454.148 563.443C453.964 563.697 453.806 563.893 453.662 564.096C453.475 564.332 453.312 564.585 453.175 564.853C453.031 565.192 453.05 565.577 453.438 565.734C453.826 565.89 454.096 565.584 454.181 565.238C454.339 564.742 454.444 564.226 454.608 563.737C454.654 563.593 454.812 563.404 454.931 563.397C455.337 563.399 455.743 563.423 456.147 563.469L456.081 563.691C456.62 563.038 456.627 562.32 456.127 561.981C456.335 561.538 456.671 561.168 457.093 560.917C457.515 560.665 458.003 560.545 458.494 560.571C458.494 560.643 458.494 560.702 458.494 560.715C457.285 561.683 456.46 563.045 456.166 564.559C455.958 565.145 455.701 565.712 455.397 566.256C455.299 566.471 455.213 566.687 455.069 567.013L455.443 566.882C455.456 566.993 455.456 567.105 455.443 567.215C455.371 567.496 455.286 567.803 454.891 567.692C454.497 567.581 454.595 567.228 454.687 566.948C454.786 566.685 454.897 566.428 455.023 566.178C454.781 566.466 454.589 566.792 454.457 567.143C454.412 567.293 454.426 567.454 454.497 567.593C454.567 567.733 454.688 567.84 454.835 567.894C454.983 567.948 455.145 567.945 455.29 567.884C455.435 567.823 455.551 567.71 455.614 567.568C455.785 567.185 455.905 566.781 455.969 566.367C456.239 565.42 456.489 564.474 456.784 563.534C456.872 563.347 457.027 563.198 457.218 563.117C458.533 562.575 459.92 562.131 461.209 561.518C463.818 560.157 466.693 559.373 469.636 559.22C470.206 559.257 470.777 559.18 471.316 558.992C471.855 558.805 472.35 558.512 472.772 558.13C472.965 557.945 473.119 557.723 473.225 557.478C473.332 557.233 473.387 556.97 473.39 556.703C473.392 556.437 473.341 556.172 473.24 555.925C473.138 555.678 472.988 555.454 472.799 555.265V555.265ZM469.012 556.655L468.111 555.696C469.097 555.794 469.288 556.088 469.012 556.655ZM460.63 548.249C461.081 548.354 461.521 548.5 461.945 548.687C462.602 548.921 463.26 549.156 463.917 549.424C464.302 549.539 464.658 549.732 464.962 549.992C465.468 550.546 466.115 550.955 466.836 551.173C467.245 551.291 467.617 551.51 467.916 551.81C468.215 552.111 468.432 552.482 468.545 552.89L466.494 551.839L466.79 551.734C466.076 551.194 465.209 550.888 464.312 550.86C464.048 550.865 463.788 550.802 463.557 550.676C463.326 550.55 463.133 550.366 462.997 550.142C462.718 549.809 462.345 549.568 461.925 549.45C461.504 549.313 461.222 549.744 461.393 550.162L461.288 550.286C460.914 550.017 460.584 549.693 460.308 549.326C460.025 548.811 459.697 548.824 459.263 548.987L458.369 549.333C458.56 548.919 458.891 548.585 459.303 548.387C459.716 548.19 460.185 548.141 460.63 548.249V548.249ZM447.364 563.019L447.62 562.444C447.16 562.594 446.805 562.705 446.45 562.829C445.865 563.032 445.793 562.973 445.674 562.36C445.639 562.193 445.591 562.029 445.53 561.87L445.359 561.903C445.463 562.378 445.536 562.86 445.576 563.345C445.556 563.696 445.474 564.041 445.333 564.363C445.118 565.011 444.864 565.646 444.57 566.262C444.351 566.584 444.092 566.878 443.801 567.137L443.643 567.019C443.669 566.809 443.729 566.604 443.821 566.413C444.721 565.231 444.748 563.802 444.853 562.451C444.939 561.47 445.324 560.539 445.957 559.782C446.72 561.191 448.028 561.681 449.494 561.922L449.428 562.105L447.456 563.117L447.364 563.019ZM449.047 563.404V563.241L451.21 562.901V562.98L449.047 563.404ZM454.516 563.136L454.438 563.671C454.326 564.135 454.24 564.605 454.096 565.055C454.008 565.262 453.878 565.449 453.714 565.603C453.714 565.636 453.432 565.544 453.425 565.492C453.392 565.27 453.333 564.983 453.425 564.84C453.735 564.433 454.068 564.045 454.424 563.678C454.313 562.457 453.931 562.19 452.452 562.314V562.138C452.801 562.092 453.11 562.033 453.484 562.02C453.859 562.007 454.28 562.02 454.7 562.02C454.622 562.392 454.569 562.738 454.516 563.136V563.136ZM454.595 558.235C453.892 557.634 453.123 557.935 452.472 558.476C452.643 558.89 452.843 559.291 453.07 559.677C453.246 559.883 453.472 560.041 453.728 560.134C453.825 560.165 453.914 560.217 453.989 560.286C454.064 560.355 454.122 560.44 454.16 560.534C454.198 560.628 454.214 560.73 454.207 560.831C454.201 560.932 454.172 561.031 454.122 561.12C453.951 561.602 453.616 561.465 453.274 561.394C452.663 561.257 452.038 561.133 451.335 560.989C451.678 560.268 451.808 559.464 451.708 558.672C451.607 557.88 451.282 557.133 450.769 556.518C451.538 555.866 452.222 555.174 453.228 556.186L453.267 555.937L452.216 555.285L455.141 551.865C455.308 552.407 455.442 552.958 455.542 553.516C455.542 553.751 455.272 554.019 455.279 554.267C455.279 554.828 455.2 555.109 454.556 555.298C453.774 555.526 453.898 557.008 454.628 557.556C454.965 557.744 455.256 558.003 455.483 558.313C455.717 558.882 455.904 559.469 456.042 560.069C455.619 559.413 455.135 558.799 454.595 558.235V558.235ZM456.863 558.652C456.652 558.552 456.482 558.381 456.383 558.17C456.351 558.117 456.613 557.922 456.712 557.778C456.811 557.634 456.949 557.367 457.067 557.164C456.881 557.039 456.674 556.949 456.456 556.897C455.904 556.93 455.351 556.93 454.799 556.897C454.102 556.773 454.457 556.244 454.516 555.84C454.576 555.435 454.885 555.526 455.207 555.611C455.646 555.737 456.104 555.79 456.561 555.768C456.706 555.768 456.824 555.396 456.955 555.2C456.752 555.148 456.521 555.017 456.351 555.069C456.035 555.167 455.726 555.2 455.693 554.854C455.655 554.542 455.732 554.227 455.91 553.966C456.028 553.81 456.383 553.816 456.475 553.797C457.672 553.797 458.448 554.737 458.789 555.787C458.952 556.517 458.84 557.281 458.474 557.935C458.325 558.21 458.09 558.429 457.804 558.558C457.517 558.688 457.196 558.721 456.89 558.652H456.863ZM458.441 560.258C458.323 560.18 458.382 559.814 458.356 559.494L457.632 559.853C458.75 558.339 459.67 556.897 458.836 555.037C459.19 554.893 459.493 554.802 459.743 554.678C460.775 554.221 461.209 553.268 461.649 552.341C461.84 551.943 461.445 551.937 461.215 551.871L457.074 550.736C457.001 550.736 456.936 550.677 456.738 550.592C457.33 550.397 457.81 550.253 458.283 550.077C458.757 549.9 459.184 549.515 459.539 549.6C459.894 549.685 460.052 550.299 460.367 550.612C460.644 550.871 460.968 551.077 461.32 551.219C462.497 551.702 463.766 552.08 464.607 553.125C465.419 554.227 466.504 555.101 467.756 555.663C468.085 555.8 468.197 556.427 468.302 556.89C467.863 556.095 467.141 555.49 466.277 555.193C466.185 555.689 466.1 556.146 466.021 556.61C465.704 555.705 465.108 554.922 464.318 554.371C463.76 553.948 463.072 553.727 462.37 553.746C461.668 553.765 460.993 554.022 460.459 554.476C459.964 554.96 459.659 555.604 459.599 556.292C459.539 556.98 459.727 557.666 460.131 558.228C460.38 558.613 460.433 558.92 459.953 559.168C459.811 559.261 459.683 559.373 459.572 559.501L459.631 559.586L460.643 559.338L460.722 559.494C460.256 559.811 459.769 560.094 459.263 560.343C459.128 560.389 458.984 560.406 458.842 560.391C458.7 560.377 458.563 560.331 458.441 560.258V560.258ZM470.366 558.953C466.995 559.031 463.691 559.906 460.729 561.505C460.486 561.629 460.223 561.72 459.927 561.844C460.074 561.468 460.324 561.141 460.65 560.899C460.975 560.658 461.363 560.513 461.767 560.48C462.296 560.355 462.792 560.119 463.22 559.788C463.878 559.357 464.476 558.757 465.377 558.757C465.896 558.757 466.415 558.607 466.928 558.633C467.459 558.653 467.986 558.527 468.45 558.269C468.914 558.011 469.297 557.631 469.558 557.171C469.778 556.847 470.062 556.569 470.391 556.354C470.721 556.139 471.09 555.991 471.477 555.918C471.688 555.844 471.894 555.759 472.095 555.663C472.352 555.813 472.753 555.918 472.917 556.166C473.052 556.393 473.114 556.656 473.095 556.92C473.076 557.183 472.977 557.434 472.812 557.641C472.555 558.052 472.193 558.388 471.764 558.617C471.335 558.846 470.853 558.96 470.366 558.946V558.953Z" fill="#C6D300"/>
</svg>
